<?xml version="1.0" standalone="no"?><!DOCTYPE svg PUBLIC "-//W3C//DTD SVG 1.1//EN" "http://www.w3.org/Graphics/SVG/1.1/DTD/svg11.dtd"><svg class="icon" height="512" viewBox="0 0 1024 1024" version="1.1" xmlns="http://www.w3.org/2000/svg"><path d="M519.881504 576.779376c21.116947 0 38.235836-17.118889 38.235836-38.235836L558.11734 102.33062c0-21.116947-17.118889-38.235836-38.235836-38.235836-21.116947 0-38.235836 17.118889-38.235836 38.235836l0 436.211896C481.645668 559.660486 498.764558 576.779376 519.881504 576.779376zM875.898941 284.844443c-45.686529-69.296249-109.738333-123.891681-185.227632-157.883867-19.257599-8.671497-41.893132-0.090051-50.563606 19.165502-8.670473 19.255553-0.089028 41.893132 19.165502 50.563606 128.686894 57.945737 211.838709 186.54872 211.838709 327.631946 0 198.014866-161.097048 359.111914-359.111914 359.111914S152.888086 722.335473 152.888086 524.32163c0-139.463332 81.813331-267.455401 208.429053-326.074474 19.163455-8.872065 27.505447-31.598672 18.633383-50.761104-8.872065-19.163455-31.597649-27.505447-50.761104-18.633383-74.4005 34.444487-137.446395 89.037872-182.323489 157.87875-46.088688 70.697155-70.448492 152.854317-70.448492 237.591233 0 58.785871 11.522428 115.835192 34.245965 169.55979 21.940708 51.873438 53.342906 98.453313 93.333712 138.444119 39.990806 39.990806 86.569658 71.39198 138.444119 93.333712 53.725622 22.723537 110.772896 34.245965 169.55979 34.245965s115.835192-11.522428 169.55979-34.245965c51.873438-21.941732 98.453313-53.342906 138.444119-93.333712 39.990806-39.990806 71.393004-86.569658 93.333712-138.444119 22.724561-53.725622 34.245965-110.773919 34.245965-169.55979C947.583586 438.784488 922.795017 355.975481 875.898941 284.844443z" /></svg>